{"title":"Come Out and Play.2012.1080p.BluRay.x264 . NVEE","uid":8984610,"size":2137814639,"categoryP":"video","categoryS":"hd___movies","magnet":"?xt=urn:btih:1dd4b38ef96a259aeff3774861a56f4791682bb8&amp;dn=Come+Out+and+Play.2012.1080p.BluRay.x264+.+NVEE&amp;tr=udp%3A%2F%2Ftracker.openbittorrent.com%3A80&amp;tr=udp%3A%2F%2Fopen.demonii.com%3A1337&amp;tr=udp%3A%2F%2Ftracker.coppersurfer.tk%3A6969&amp;tr=udp%3A%2F%2Fexodus.desync.com%3A6969","seeders":0,"leechers":1,"uploader":".NVEE","files":12,"time":1380642315,"description":"FULL_INFOs\n\n\n99.99% --- SYNCED GUARANTEED \n\n&quot;Totally scrutinized / analyzed to be a verified torrent.&quot;\n\n___________________________________________\n\n\nSource : BluRay ~ 1080p\n\nMy Media Player of Choice &quot;VLC Media Player via HDMI&quot;\n\nSpoken Language : English Only\n\nAudio : 6 ~ Channels Only\n\n\n_____________________________________\n\n\n\n &lt;a href=&quot;\nhttp://www.imdb.com/title/tt2341664/&quot; rel=&quot;nofollow&quot; target=&quot;_NEW&quot;&gt;\nhttp://www.imdb.com/title/tt2341664/&lt;/a&gt;\n\n\n\n\n\nSubs Info : MULTI_SUBS\n\n &lt;a href=&quot;\nhttp://www.subtitleseeker.com/2341664/Come+Out+and+Play/Subtitles/&quot; rel=&quot;nofollow&quot; target=&quot;_NEW&quot;&gt;\nhttp://www.subtitleseeker.com/2341664/Come+Out+and+Play/Subtitles/&lt;/a&gt;\n\n107 Subtitles In 23 Languages Use Link Provided \n &lt;a href=&quot;\nhttp://www.subtitleseeker.com/2341664/Come+Out+and+Play/Subtitles/&quot; rel=&quot;nofollow&quot; target=&quot;_NEW&quot;&gt;\nhttp://www.subtitleseeker.com/2341664/Come+Out+and+Play/Subtitles/&lt;/a&gt;\n\n107 Subtitles In 23 Languages Only @ SubtitleSeeker\n &lt;a href=&quot;\nhttp://www.subtitleseeker.com/2341664/Come+Out+and+Play/Subtitles/&quot; rel=&quot;nofollow&quot; target=&quot;_NEW&quot;&gt;\nhttp://www.subtitleseeker.com/2341664/Come+Out+and+Play/Subtitles/&lt;/a&gt;\n\nAll .srt subs can be turned On/Off\n\n\n\n &lt;a href=&quot;\nhttp://www.imdb.com/title/tt2341664/&quot; rel=&quot;nofollow&quot; target=&quot;_NEW&quot;&gt;\nhttp://www.imdb.com/title/tt2341664/&lt;/a&gt;\n\n\n\n---------------------------------------------------------------------------------\n\n\nGeneral\n\nComplete name : Come Out and Play 2012.1080p.BluRay.x264 . NVEE.mp4\nFormat : MPEG-4\nFormat profile : Base Media\nCodec ID : isom\nFile size : 1.99 GiB\nDuration : 1h 26mn\nOverall bit rate : 3 282 Kbps\nEncoded date : UTC 2013-10-01 04:24:43\nTagged date : UTC 2013-10-01 04:24:43\n\n\nVideo\n\nID : 1\nFormat : AVC\nFormat/Info : Advanced Video Codec\nFormat profile : &lt;a class=&quot;__cf_email__&quot; href=&quot;/cdn-cgi/l/email-protection&quot; data-cfemail=&quot;2d65444a456d6119031d&quot;&gt;[email&amp;#160;protected]&lt;/a&gt;&lt;script cf-hash='f9e31' type=&quot;text/javascript&quot;&gt;\n/* &lt;![CDATA[ */!function(){try{var t=&quot;currentScript&quot;in document?document.currentScript:function(){for(var t=document.getElementsByTagName(&quot;script&quot;),e=t.length;e--;)if(t[e].getAttribute(&quot;cf-hash&quot;))return t[e]}();if(t&amp;&amp;t.previousSibling){var e,r,n,i,c=t.previousSibling,a=c.getAttribute(&quot;data-cfemail&quot;);if(a){for(e=&quot;&quot;,r=parseInt(a.substr(0,2),16),n=2;a.length-n;n+=2)i=parseInt(a.substr(n,2),16)^r,e+=String.fromCharCode(i);e=document.createTextNode(e),c.parentNode.replaceChild(e,c)}}}catch(u){}}();/* ]]&gt; */&lt;/script&gt;\nFormat settings, CABAC : Yes\nFormat settings, ReFrames : 4 frames\nCodec ID : avc1\nCodec ID/Info : Advanced Video Coding\nDuration : 1h 26mn\nBit rate : 2 639 Kbps\nMaximum bit rate : 10.7 Mbps\nWidth : 1 920 pixels\nHeight : 856 pixels\nDisplay aspect ratio : 2.25:1\nFrame rate mode : Constant\nFrame rate : 23.976 fps\nColor space : YUV\nChroma subsampling : 4:2:0\nBit depth : 8 bits\nScan type : Progressive\nBits/(Pixel*Frame) : 0.067\nStream size : 1.60 GiB (80%)\nTitle : 1080p.BluRay.x264 .264#trackID=1:fps=&lt;a class=&quot;__cf_email__&quot; href=&quot;/cdn-cgi/l/email-protection&quot; data-cfemail=&quot;3b090815020c0d7b7c6b7a780b150e150a167f7e6d16495e4d0f090308&quot;&gt;[email&amp;#160;protected]&lt;/a&gt;&lt;script cf-hash='f9e31' type=&quot;text/javascript&quot;&gt;\n/* &lt;![CDATA[ */!function(){try{var t=&quot;currentScript&quot;in document?document.currentScript:function(){for(var t=document.getElementsByTagName(&quot;script&quot;),e=t.length;e--;)if(t[e].getAttribute(&quot;cf-hash&quot;))return t[e]}();if(t&amp;&amp;t.previousSibling){var e,r,n,i,c=t.previousSibling,a=c.getAttribute(&quot;data-cfemail&quot;);if(a){for(e=&quot;&quot;,r=parseInt(a.substr(0,2),16),n=2;a.length-n;n+=2)i=parseInt(a.substr(n,2),16)^r,e+=String.fromCharCode(i);e=document.createTextNode(e),c.parentNode.replaceChild(e,c)}}}catch(u){}}();/* ]]&gt; */&lt;/script&gt;\nWriting library : x264 core 133 r2334 a3ac64b\nEncoded date : UTC 2013-10-01 04:24:43\nTagged date : UTC 2013-10-01 04:34:04\n\n\nAudio\n\nID : 2\nFormat : AC-3\nFormat/Info : Audio Coding 3\nMode extension : CM (complete main)\nFormat settings, Endianness : Big\nCodec ID : ac-3\nDuration : 1h 26mn\nBit rate mode : Constant\nBit rate : 640 Kbps\nChannel(s) : 6 channels\nChannel positions : Front: L C R, Side: L R, LFE\nSampling rate : 48.0 KHz\nBit depth : 16 bits\nCompression mode : Lossy\nStream size : 397 MiB (20%)\nTitle : 1080p.BluRay.x264 . NVEE - [0] English_audio.ac3#trackID=1:lang=&lt;a class=&quot;__cf_email__&quot; href=&quot;/cdn-cgi/l/email-protection&quot; data-cfemail=&quot;4d28230d0a1d0c0e7d6378637c6009081b603f283b797f757e&quot;&gt;[email&amp;#160;protected]&lt;/a&gt;&lt;script cf-hash='f9e31' type=&quot;text/javascript&quot;&gt;\n/* &lt;![CDATA[ */!function(){try{var t=&quot;currentScript&quot;in document?document.currentScript:function(){for(var t=document.getElementsByTagName(&quot;script&quot;),e=t.length;e--;)if(t[e].getAttribute(&quot;cf-hash&quot;))return t[e]}();if(t&amp;&amp;t.previousSibling){var e,r,n,i,c=t.previousSibling,a=c.getAttribute(&quot;data-cfemail&quot;);if(a){for(e=&quot;&quot;,r=parseInt(a.substr(0,2),16),n=2;a.length-n;n+=2)i=parseInt(a.substr(n,2),16)^r,e+=String.fromCharCode(i);e=document.createTextNode(e),c.parentNode.replaceChild(e,c)}}}catch(u){}}();/* ]]&gt; */&lt;/script&gt;\nLanguage : English\nEncoded date : UTC 2013-10-01 04:32:15\nTagged date : UTC 2013-10-01 04:34:04\n\n\n\nSynopsis\n\nAn expectant couple arrive on a scenic island off the coast of Mexico, only to wage a desperate fight for survival against a vicious gang of murderous children in this remake of the 1976 horror classic Who Can Kill a Child? Francis (Ebon Moss-Bachrach) and Beth (Vinessa Shaw) are vacationing in Mexico when they rent a boat to visit a nearby island known for having its very own Carnival. But by the time they arrive on the island, the festival has ended, and the streets are empty. Curiously, the only people they can find are young children who seem to roam the area without supervision. Attempting to check into a local hotel, Francis and Beth hear what appears to be a desperate distress call on the radio, but can't make out the language. Later, Francis watches in horror as the local children attack and disembowel an elderly man in the streets. Horrified, he runs back to the hotel and encounters a shell-shocked father who reveals that the children on the island have all gone insane, killing every adult in sight. As the laughter of children echoes through the streets, Francis and Beth realize that they must run and never look back if they ever hope to make it out of this nightmare alive.\n\nEnjoy !\n","torrent":{"xt":"urn:btih:1dd4b38ef96a259aeff3774861a56f4791682bb8","amp;dn":"Come+Out+and+Play.2012.1080p.BluRay.x264+.+NVEE","amp;tr":["udp%3A%2F%2Ftracker.openbittorrent.com%3A80","udp%3A%2F%2Fopen.demonii.com%3A1337","udp%3A%2F%2Ftracker.coppersurfer.tk%3A6969","udp%3A%2F%2Fexodus.desync.com%3A6969"],"infoHash":"1dd4b38ef96a259aeff3774861a56f4791682bb8","infoHashBuffer":{"type":"Buffer","data":[29,212,179,142,249,106,37,154,239,243,119,72,97,165,111,71,145,104,43,184]},"announce":[],"urlList":[]}}